<svg width="200" height="200" viewBox="0 0 200 200" xmlns="http://www.w3.org/2000/svg">
    <path d="M80,20 L120,20 L140,40 L140,180 L100,160 L60,180 L60,40 L80,20 Z" 
          fill="#ff6b8b" stroke="#333333" stroke-width="4"/>
    <path d="M80,20 L100,25 L120,20" stroke="#333333" stroke-width="2" fill="none"/>
    <path d="M80,20 C60,40 60,100 60,180" stroke="#333333" stroke-width="1" fill="none" opacity="0.5"/>
    <path d="M120,20 C140,40 140,100 140,180" stroke="#333333" stroke-width="1" fill="none" opacity="0.5"/>
    <path d="M90,30 C80,50 75,100 80,160" stroke="#ff8ca3" stroke-width="1" fill="none" opacity="0.7"/>
    <path d="M110,30 C120,50 125,100 120,160" stroke="#ff8ca3" stroke-width="1" fill="none" opacity="0.7"/>
    <path d="M75,70 L125,70" stroke="#ff8ca3" stroke-width="3" fill="none" opacity="0.7"/>
    <path d="M70,120 L130,120" stroke="#ff8ca3" stroke-width="3" fill="none" opacity="0.7"/>
</svg>