<svg width="200" height="200" viewBox="0 0 200 200" xmlns="http://www.w3.org/2000/svg">
    <path d="M50,120 C50,90 60,60 100,60 C140,60 150,90 150,120 L50,120 Z" 
          fill="#F5F5DC" stroke="#333333" stroke-width="2"/>
    <path d="M40,120 L160,120 C170,120 170,140 160,140 L40,140 C30,140 30,120 40,120 Z" 
          fill="#F5F5DC" stroke="#333333" stroke-width="2"/>
    <path d="M60,80 C70,70 85,65 100,65 C115,65 130,70 140,80" 
          fill="none" stroke="#333333" stroke-width="1" opacity="0.5"/>
    <path d="M60,100 C70,90 85,85 100,85 C115,85 130,90 140,100" 
          fill="none" stroke="#333333" stroke-width="1" opacity="0.5"/>
    <path d="M95,120 L105,120 L105,138 L95,138 Z" 
          fill="#E5E5D0" stroke="#333333" stroke-width="0.5"/>
</svg>