<svg width="200" height="200" viewBox="0 0 200 200" xmlns="http://www.w3.org/2000/svg">
    <path d="M40,65 C45,60 70,60 75,65 L85,75 C90,80 110,60 115,65 L125,75 C130,80 150,60 155,65 L155,75 C150,80 130,100 125,95 L115,85 C110,80 90,100 85,95 L75,85 C70,80 50,100 45,95 L45,85 C40,80 20,100 15,95 L15,85 C10,80 5,60 10,55 L20,45 C25,40 45,60 50,55 L60,45 C65,40 70,60 75,55 Z" 
          fill="#FF4136" stroke="#cc0000" stroke-width="2"/>
    <path d="M45,75 C50,70 75,70 80,75 L90,85 C95,90 115,70 120,75 L130,85 C135,90 155,70 160,75 L160,85 C155,90 135,110 130,105 L120,95 C115,90 95,110 90,105 L80,95 C75,90 55,110 50,105 L50,95 C45,90 25,110 20,105 L20,95 C15,90 10,70 15,65 L25,55 C30,50 50,70 55,65 L65,55 C70,50 75,70 80,65 Z" 
          fill="#ff7366" stroke="#cc0000" stroke-width="2" opacity="0.7"/>
    <path d="M50,85 C55,80 80,80 85,85 L95,95 C100,100 120,80 125,85 L135,95 C140,100 160,80 165,85 L165,95 C160,100 140,120 135,115 L125,105 C120,100 100,120 95,115 L85,105 C80,100 60,120 55,115 L55,105 C50,100 30,120 25,115 L25,105 C20,100 15,80 20,75 L30,65 C35,60 55,80 60,75 L70,65 C75,60 80,80 85,75 Z" 
          fill="#ff9686" stroke="#cc0000" stroke-width="2" opacity="0.5"/>
    <path d="M160,85 L180,105 M130,115 L150,135 M95,115 L115,135 M55,115 L75,135 M20,105 L40,125" 
          stroke="#ffffff" stroke-width="2" opacity="0.7"/>
</svg>