<svg width="200" height="200" viewBox="0 0 200 200" xmlns="http://www.w3.org/2000/svg">
    <path d="M40,80 C60,70 90,80 90,90 L110,90 C110,80 140,70 160,80 L170,100 C180,120 150,130 140,110 L130,100 L110,100 L90,100 L70,110 C60,130 30,120 40,100 Z" 
          fill="#333333" stroke="#111111" stroke-width="2"/>
    <path d="M60,85 C70,80 85,85 85,90 L115,90 C115,85 130,80 140,85" 
          fill="none" stroke="#111111" stroke-width="1"/>
    <path d="M50,95 A20,15 0 0,0 80,95 A20,15 0 0,0 50,95" 
          fill="#111111" fill-opacity="0.6" stroke="none"/>
    <path d="M120,95 A20,15 0 0,0 150,95 A20,15 0 0,0 120,95" 
          fill="#111111" fill-opacity="0.6" stroke="none"/>
    <path d="M85,90 L115,90" 
          stroke="#111111" stroke-width="1.5" fill="none"/>
</svg>