<svg width="200" height="200" viewBox="0 0 200 200" xmlns="http://www.w3.org/2000/svg">
    <path d="M40,40 L80,15 L120,15 L160,40 L145,60 L145,170 L55,170 L55,60 L40,40 Z" 
          fill="#0074D9" stroke="#333333" stroke-width="4"/>
    <path d="M80,15 L100,35 L120,15" stroke="#333333" stroke-width="2" fill="none"/>
    <path d="M55,70 L65,80 L55,90 L65,100 L55,110 L65,120 L55,130" stroke="#ffffff" stroke-width="2" fill="none" opacity="0.5"/>
    <path d="M145,70 L135,80 L145,90 L135,100 L145,110 L135,120 L145,130" stroke="#ffffff" stroke-width="2" fill="none" opacity="0.5"/>
    <path d="M80,15 L80,10 L120,10 L120,15" fill="#003366" stroke="#333333" stroke-width="2"/>
    <path d="M75,60 L125,60" stroke="#003366" stroke-width="10" fill="none"/>
    <path d="M72,80 L128,80" stroke="#003366" stroke-width="4" fill="none"/>
</svg>